<?xml version="1.0" encoding="iso-8859-1"?>
<!-- Uploaded to: SVG Repo, www.svgrepo.com, Generator: SVG Repo Mixer Tools -->
<svg version="1.1" id="Layer_1" xmlns="http://www.w3.org/2000/svg" xmlns:xlink="http://www.w3.org/1999/xlink" 
	 viewBox="0 0 512 512" xml:space="preserve">
<path style="fill:#333E48;" d="M436.935,239.81h-43.611v-50.852c0-75.721-61.603-137.324-137.324-137.324
	s-137.324,61.603-137.324,137.324v50.852H75.065v-50.852C75.065,89.189,156.232,8.023,256,8.023S436.935,89.19,436.935,188.958
	V239.81z"/>
<path style="opacity:0.2;enable-background:new    ;" d="M75.065,188.958v50.852h43.611v-7.299H92.133
	c-3.279,0-5.937-2.658-5.937-5.937v-43.165c0-62.495,31.396-118.11,79.354-151.109C111.5,63.629,75.065,122.116,75.065,188.958z
	 M410.391,232.512c-3.279,0-5.936-2.658-5.936-5.937v-43.405c0-75.776-60.745-138.397-136.521-138.832
	c-30.385-0.174-58.524,9.58-81.373,26.191c20.386-11.999,44.121-18.894,69.439-18.894c75.721,0,137.324,61.603,137.324,137.324
	v50.852h43.611v-7.299h-26.543V232.512z"/>
<path style="fill:#7D868C;" d="M267.644,206.798h-23.29c-5.428,0-9.827,4.4-9.827,9.827v46.371c0,5.428,4.4,9.828,9.827,9.828h23.29
	c5.427,0,9.827-4.4,9.827-9.828v-46.371C277.472,211.198,273.072,206.798,267.644,206.798z"/>
<rect x="234.522" y="224.489" style="fill:#77E0C1;" width="42.951" height="16.046"/>
<path style="fill:#FF6361;" d="M118.676,416.973H74.405c-35.004,0-63.38-28.376-63.38-63.38V303.19
	c0-35.004,28.376-63.38,63.38-63.38h44.271V416.973z"/>
<path style="fill:#5C6670;" d="M135.569,239.81h-16.893v177.164h16.893c8.613,0,15.595-6.982,15.595-15.595V255.405
	C151.164,246.792,144.181,239.81,135.569,239.81z"/>
<path style="fill:#77E0C1;" d="M43.078,309.898H11.025v36.988h32.053c3.97,0,7.187-3.218,7.187-7.187v-22.614
	C50.265,313.116,47.047,309.898,43.078,309.898z"/>
<path style="fill:#FF6361;" d="M393.323,416.973h44.271c35.004,0,63.38-28.376,63.38-63.38V303.19
	c0-35.004-28.376-63.38-63.38-63.38h-44.271V416.973z"/>
<path style="fill:#5C6670;" d="M376.43,239.81h16.893v177.164H376.43c-8.613,0-15.595-6.982-15.595-15.595V255.405
	C360.835,246.792,367.818,239.81,376.43,239.81z"/>
<path style="fill:#77E0C1;" d="M468.921,309.898h32.053v36.988h-32.053c-3.97,0-7.187-3.218-7.187-7.187v-22.614
	C461.734,313.116,464.952,309.898,468.921,309.898z"/>
<path style="opacity:0.2;enable-background:new    ;" d="M146.979,403.448H85.815c-35.004,0-63.38-28.376-63.38-63.38v-50.404
	c0-12.387,3.567-23.934,9.709-33.696c-12.959,11.605-21.12,28.458-21.12,47.222v50.404c0,35.004,28.376,63.38,63.38,63.38h61.163
	c8.106,0,14.762-6.184,15.519-14.091C149.776,403.241,148.404,403.448,146.979,403.448z"/>
<path style="opacity:0.2;enable-background:new    ;" d="M451.858,403.447h-61.163c-8.613,0-15.595-6.982-15.595-15.595V241.879
	c0-0.683,0.059-1.35,0.143-2.009c-8.056,0.609-14.408,7.322-14.408,15.535v145.974c0,8.613,6.982,15.595,15.595,15.595h61.163
	c20.438,0,38.603-9.683,50.193-24.702C477.575,399.315,465.201,403.447,451.858,403.447z"/>
<path style="opacity:0.2;enable-background:new    ;" d="M274.231,265.793h-23.29c-5.428,0-9.827-4.4-9.827-9.827v-46.371
	c0-0.811,0.109-1.594,0.294-2.347c-3.987,1.252-6.881,4.975-6.881,9.376v46.371c0,5.427,4.4,9.827,9.827,9.827h23.29
	c4.617,0,8.479-3.188,9.534-7.48C276.247,265.635,275.258,265.793,274.231,265.793z"/>
<path style="fill:#1E252B;" d="M444.957,232.165v-43.208C444.957,84.765,360.191,0,256,0S67.041,84.765,67.041,188.958v43.208
	c-35.926,3.697-64.04,34.138-64.04,71.024v50.404c0,39.372,32.031,71.403,71.403,71.403h14.457
	C89.178,473.023,128.334,512,176.435,512c48.295,0,87.587-39.291,87.587-87.588V280.846h3.622c9.843,0,17.851-8.007,17.851-17.85
	v-46.371c0-9.843-8.007-17.85-17.851-17.85h-3.901v-31.823c0-4.432-3.591-8.023-8.022-8.023c-4.431,0-8.023,3.591-8.023,8.023
	v31.823h-3.342c-9.843,0-17.851,8.007-17.851,17.85v46.371c0,9.843,8.007,17.85,17.851,17.85h3.622v143.567
	c0,39.448-32.094,71.541-71.542,71.541c-39.252,0-71.209-31.777-71.526-70.957h30.66c13.023,0,23.618-10.595,23.618-23.618V255.405
	c0-13.023-10.595-23.618-23.618-23.618h-8.869v-42.829c0-71.295,58.004-129.299,129.301-129.299
	c71.295,0,129.299,58.004,129.299,129.299v42.829h-8.868c-13.023,0-23.618,10.595-23.618,23.618v145.974
	c0,13.023,10.595,23.618,23.618,23.618h61.163c39.372,0,71.403-32.031,71.403-71.403V303.19
	C508.998,266.303,480.882,235.862,444.957,232.165z M244.355,264.799c-0.995,0-1.805-0.81-1.805-1.804v-46.371
	c0-0.995,0.809-1.804,1.805-1.804h23.29c0.995,0,1.805,0.81,1.805,1.804v46.371c0,0.995-0.81,1.804-1.805,1.804H244.355z
	 M385.299,408.95h-8.868c-4.175,0-7.572-3.396-7.572-7.572V255.405c0-4.175,3.396-7.572,7.572-7.572h8.868V408.95z M110.653,408.95
	H74.405c-30.524,0-55.357-24.833-55.357-55.357V303.19c0-30.523,24.832-55.357,55.357-55.357h36.248V408.95z M135.569,247.833
	c4.175,0,7.572,3.396,7.572,7.572v145.974c0,4.175-3.396,7.572-7.572,7.572h-8.869V247.833H135.569z M256,43.612
	c-80.145,0-145.347,65.202-145.347,145.346v42.829H83.088v-42.829c0-95.343,77.568-172.911,172.912-172.911
	c95.343,0,172.911,77.568,172.911,172.911v42.829h-27.564v-42.829C401.346,108.814,336.144,43.612,256,43.612z M492.951,353.593
	c0,30.523-24.833,55.357-55.357,55.357h-36.249V247.833h36.249c30.523,0,55.357,24.833,55.357,55.357V353.593z"/>
</svg>